<svg xmlns="http://www.w3.org/2000/svg" viewBox="0 0 64 64">
  <rect width="64" height="64" rx="16" fill="#FFFC00"/>
  <path d="M32 11c7.3 0 12 5.7 12 13.3v4.2c0 1.4 1.8 2.1 3.3 2.7 1.2.5 2.2 1 2.2 1.9 0 1.8-4.1 3-5.8 3.4 1 2.4 3.1 4.3 6.1 5.4.9.3 1.7.7 1.7 1.6 0 1.2-1.1 1.8-2.3 2-1 .2-2 .3-2.9.7-1.1.5-1.5 2.2-3 2.2-.8 0-1.8-.4-3-.4-2.3 0-3.4 1.9-8.3 1.9s-6-1.9-8.3-1.9c-1.2 0-2.2.4-3 .4-1.5 0-1.9-1.7-3-2.2-.9-.4-1.9-.5-2.9-.7-1.2-.2-2.3-.8-2.3-2 0-.9.8-1.3 1.7-1.6 3-1.1 5.1-3 6.1-5.4-1.7-.4-5.8-1.6-5.8-3.4 0-.9 1-1.4 2.2-1.9 1.5-.6 3.3-1.3 3.3-2.7v-4.2C20 16.7 24.7 11 32 11z" fill="#fff" stroke="#111" stroke-width="2"/>
</svg>
