<svg xmlns="http://www.w3.org/2000/svg" viewBox="0 0 64 64">
  <rect width="64" height="64" rx="16" fill="#25D366"/>
  <path d="M32 12c-10.7 0-19.4 8.6-19.4 19.2 0 3.6 1 7 2.9 10l-3 11 11.4-3c2.8 1.5 5.6 2.2 8.1 2.2 10.7 0 19.4-8.6 19.4-19.2S42.7 12 32 12zm0 34.9c-2.6 0-5.2-.7-7.5-2l-.5-.3-6.8 1.8 1.8-6.5-.4-.6c-1.7-2.5-2.6-5.3-2.6-8.1 0-8.1 6.7-14.8 15-14.8s15 6.7 15 14.8-6.7 15.7-15 15.7zm8.2-11.1c-.5-.2-2.7-1.3-3.1-1.5-.4-.1-.8-.2-1.1.2-.3.5-1.2 1.5-1.5 1.8-.3.3-.6.3-1.1.1-.5-.2-2-1-3.8-2.4-1.4-1.2-2.4-2.8-2.7-3.2-.3-.5 0-.8.2-1 .2-.2.5-.6.7-.8.2-.3.3-.5.5-.8.1-.3.1-.6 0-.9-.1-.2-1.1-2.6-1.5-3.6-.4-1-.8-.8-1.1-.8h-.9c-.3 0-.9.1-1.3.6-.5.5-1.8 1.7-1.8 4.1s1.8 4.8 2 5.1c.2.3 3.6 5.5 8.8 7.7 1.2.5 2.2.8 3 .9 1.3.4 2.4.3 3.3.2 1-.1 2.7-1.1 3.1-2.2.4-1.1.4-2 .3-2.2-.2-.2-.5-.3-1-.5z" fill="#fff"/>
</svg>
